{"title":"Home.2015.BRRip.480p.x264.AAC-VYTO [P2PDL]","uid":12165623,"size":346505546,"categoryP":"video","categoryS":"movies","magnet":"?xt=urn:btih:2bed067b6033a4836645abef79d82490b20cc3e6&amp;dn=Home.2015.BRRip.480p.x264.AAC-VYTO+%5BP2PDL%5D&amp;tr=udp%3A%2F%2Ftracker.openbittorrent.com%3A80&amp;tr=udp%3A%2F%2Fopen.demonii.com%3A1337&amp;tr=udp%3A%2F%2Ftracker.coppersurfer.tk%3A6969&amp;tr=udp%3A%2F%2Fexodus.desync.com%3A6969","seeders":9,"leechers":5,"uploader":"ValidusVyto","files":7,"time":1438023037,"description":"____    ____ ____    ____ .___________.  ______   \n     /   /      /   / |           | /  __    \n    /   /      /   /  `---|  |----`|  |  |  | \n        /     _    _/       |  |     |  |  |  | \n       /        |  |         |  |     |  `--'  | \n    __/         |__|         |__|      ______/  \n                                                  \nPresenting Small Encodes with quality for years!\n                                                                                                   \n                                                                                                   \n\nHome.2015.BRRip.480p.x264.AAC-VYTO\n\n\nGenre: Animation, Adventure, Comedy &lt;a href=&quot;\nhttp://www.imdb.com/title/tt2224026/&quot; rel=&quot;nofollow&quot; target=&quot;_NEW&quot;&gt;\nhttp://www.imdb.com/title/tt2224026/&lt;/a&gt;\n\n\nGeneral\nFormat                         : MPEG-4\nFile size                      : 326 MiB\nDuration                       : 1h 33mn\nOverall bit rate               : 486 Kbps\n\nVideo\nFormat                         : AVC\nBit rate                       : 443 Kbps\nWidth                          : 720 pixels\nHeight                         : 384 pixels\nDisplay aspect ratio           : 1.85:1\nFrame rate mode                : Constant\nFrame rate                     : 23.976 fps\nBit depth                      : 8 bits\nStream size                    : 297 MiB (91%)\nWriting library                : x264 core 146 r2538 121396c\n\nAudio\nFormat                         : AAC\nBit rate mode                  : Variable\nBit rate                       : 39.9 Kbps\nChannel(s)                     : 2 channels\nChannel positions              : Front: L R\nSampling rate                  : 48.0 KHz\nStream size                    : 26.8 MiB (8%)\nLanguage                       : English\n\nSubtitle                       : Yes (English)\nSource                         : 720p.BluRay.DTS-ES.x264-iNK\n\n\nScreenshots:\n &lt;a href=&quot;\nhttp://ititli.com/qc&quot; rel=&quot;nofollow&quot; target=&quot;_NEW&quot;&gt;\nhttp://ititli.com/qc&lt;/a&gt; &lt;a href=&quot;\nhttp://ititli.com/qi&quot; rel=&quot;nofollow&quot; target=&quot;_NEW&quot;&gt;\nhttp://ititli.com/qi&lt;/a&gt; &lt;a href=&quot;\nhttp://ititli.com/qp&quot; rel=&quot;nofollow&quot; target=&quot;_NEW&quot;&gt;\nhttp://ititli.com/qp&lt;/a&gt; &lt;a href=&quot;\nhttp://ititli.com/qD&quot; rel=&quot;nofollow&quot; target=&quot;_NEW&quot;&gt;\nhttp://ititli.com/qD&lt;/a&gt; &lt;a href=&quot;\nhttp://ititli.com/qa&quot; rel=&quot;nofollow&quot; target=&quot;_NEW&quot;&gt;\nhttp://ititli.com/qa&lt;/a&gt; &lt;a href=&quot;\nhttp://ititli.com/qb&quot; rel=&quot;nofollow&quot; target=&quot;_NEW&quot;&gt;\nhttp://ititli.com/qb&lt;/a&gt; &lt;a href=&quot;\nhttp://ititli.com/qz&quot; rel=&quot;nofollow&quot; target=&quot;_NEW&quot;&gt;\nhttp://ititli.com/qz&lt;/a&gt; &lt;a href=&quot;\nhttp://ititli.com/qI&quot; rel=&quot;nofollow&quot; target=&quot;_NEW&quot;&gt;\nhttp://ititli.com/qI&lt;/a&gt; &lt;a href=&quot;\nhttp://ititli.com/qO&quot; rel=&quot;nofollow&quot; target=&quot;_NEW&quot;&gt;\nhttp://ititli.com/qO&lt;/a&gt; &lt;a href=&quot;\nhttp://ititli.com/r9&quot; rel=&quot;nofollow&quot; target=&quot;_NEW&quot;&gt;\nhttp://ititli.com/r9&lt;/a&gt; &lt;a href=&quot;\nhttp://ititli.com/rX&quot; rel=&quot;nofollow&quot; target=&quot;_NEW&quot;&gt;\nhttp://ititli.com/rX&lt;/a&gt; &lt;a href=&quot;\nhttp://ititli.com/rq&quot; rel=&quot;nofollow&quot; target=&quot;_NEW&quot;&gt;\nhttp://ititli.com/rq&lt;/a&gt;\n\n----------------------------------------------------------------------------------------------------\n\n\nEncoder Notes: Looking For Early Access To Anything You Can Provide DVDScr, R5, DVDR, BluRay, Direct\nAudio, Music Releases and Seedboxes. If You Got anything to offer please contact us.\n\nSupport us by donating BC - 1FgwdzPsd1y25Gea8wP1qni35uGCtmkRCD","torrent":{"xt":"urn:btih:2bed067b6033a4836645abef79d82490b20cc3e6","amp;dn":"Home.2015.BRRip.480p.x264.AAC-VYTO+%5BP2PDL%5D","amp;tr":["udp%3A%2F%2Ftracker.openbittorrent.com%3A80","udp%3A%2F%2Fopen.demonii.com%3A1337","udp%3A%2F%2Ftracker.coppersurfer.tk%3A6969","udp%3A%2F%2Fexodus.desync.com%3A6969"],"infoHash":"2bed067b6033a4836645abef79d82490b20cc3e6","infoHashBuffer":{"type":"Buffer","data":[43,237,6,123,96,51,164,131,102,69,171,239,121,216,36,144,178,12,195,230]},"announce":[],"urlList":[]}}